<svg width="114" height="62" viewBox="0 0 114 62" fill="none" xmlns="http://www.w3.org/2000/svg">
<path d="M3.67456 50V12.745H10.4234V28.5165H27.6866V12.745H34.4536V50H27.6866V34.1739H10.4234V50H3.67456ZM41.7936 50V12.745H56.0553C58.7476 12.745 60.985 13.1695 62.7677 14.0184C64.5626 14.8552 65.9027 16.0012 66.7879 17.4565C67.6854 18.9117 68.1341 20.561 68.1341 22.4044C68.1341 23.9203 67.843 25.2179 67.2609 26.2972C66.6788 27.3644 65.8966 28.2315 64.9143 28.8985C63.932 29.5655 62.8344 30.0446 61.6217 30.3356V30.6994C62.9436 30.7722 64.2109 31.1785 65.4236 31.9182C66.6485 32.6459 67.649 33.6767 68.4251 35.0107C69.2013 36.3447 69.5893 37.9576 69.5893 39.8495C69.5893 41.7777 69.1224 43.5119 68.1886 45.0521C67.2548 46.5801 65.8481 47.7868 63.9683 48.6721C62.0886 49.5574 59.7238 50 56.8739 50H41.7936ZM48.5425 44.3608H55.8006C58.2503 44.3608 60.0149 43.8939 61.0942 42.9601C62.1856 42.0142 62.7314 40.8015 62.7314 39.3219C62.7314 38.2184 62.4585 37.2239 61.9128 36.3386C61.367 35.4412 60.5909 34.7378 59.5843 34.2285C58.5778 33.707 57.3772 33.4463 55.9825 33.4463H48.5425V44.3608ZM48.5425 28.5893H55.2185C56.3827 28.5893 57.4317 28.3771 58.3655 27.9526C59.2993 27.516 60.033 26.9036 60.5666 26.1153C61.1124 25.3149 61.3852 24.369 61.3852 23.2775C61.3852 21.8344 60.8759 20.6459 59.8572 19.7121C58.8506 18.7783 57.3529 18.3114 55.364 18.3114H48.5425V28.5893Z" fill="white"/>
<circle cx="93.8476" cy="31.8476" r="18.4299" stroke="url(#paint0_linear_38_368)" stroke-width="2.83537"/>
<path d="M101.222 30.7047C102.104 31.214 102.104 32.4872 101.222 32.9965L91.7238 38.4805C90.8417 38.9897 89.739 38.3531 89.739 37.3346L89.739 26.3667C89.739 25.3481 90.8417 24.7115 91.7238 25.2208L101.222 30.7047Z" fill="#D9D9D9"/>
<defs>
<linearGradient id="paint0_linear_38_368" x1="93.8476" y1="12" x2="93.8476" y2="51.6951" gradientUnits="userSpaceOnUse">
<stop stop-color="#8632BB"/>
<stop offset="0.536458" stop-color="#602BC1"/>
<stop offset="1" stop-color="#4325C1"/>
</linearGradient>
</defs>
</svg>
